<svg width="4406" height="4406" viewBox="0 0 4406 4406" fill="none" xmlns="http://www.w3.org/2000/svg">
<rect width="4406" height="4406" fill="#222D4E"/>
<path fill-rule="evenodd" clip-rule="evenodd" d="M2214.75 2863L2546.75 3195V1542L2214.75 1210V2863ZM3045.75 2643L2713.75 2311V1690.5L3045.75 2022.5V2643ZM2023 2504.5L2022.25 2623H1360V1548.25H2022.25V1666.75H1505.5V2023.75H1924V2137.75H1505.5V2504.5H2023ZM2788.4 2183.2C2800.67 2193.33 2820.27 2198.4 2847.2 2198.4H2916C2929.33 2198.4 2937.87 2200.4 2941.6 2204.4C2945.6 2208.4 2947.6 2215.07 2947.6 2224.4V2232.4C2947.6 2242.27 2945.2 2249.33 2940.4 2253.6C2935.6 2257.6 2927.47 2259.6 2916 2259.6H2899.2L2876.8 2259.2C2850.67 2259.2 2829.87 2258.67 2814.4 2257.6C2799.2 2256.53 2789.73 2255.73 2786 2255.2L2770 2290C2770 2292.13 2774.27 2294 2782.8 2295.6C2791.33 2297.2 2804.67 2298 2822.8 2298H2865.6V2322H2905.6V2298H2931.6C2956.93 2298 2974.67 2291.87 2984.8 2279.6C2995.2 2267.33 3000.4 2251.2 3000.4 2231.2V2224.8C3000.4 2206.93 2997.2 2193.47 2990.8 2184.4C2984.4 2175.07 2975.2 2168.67 2963.2 2165.2C2951.2 2161.73 2936.67 2160 2919.6 2160H2854.8C2843.33 2160 2835.07 2157.87 2830 2153.6C2825.2 2149.07 2822.8 2142.4 2822.8 2133.6V2126.8C2823.07 2119.33 2825.33 2113.2 2829.6 2108.4C2833.87 2103.33 2842.13 2100.8 2854.4 2100.8H2872L2895.2 2101.6C2918.67 2101.6 2938.13 2102.13 2953.6 2103.2C2969.07 2104 2979.47 2104.67 2984.8 2105.2L2992.8 2071.6C2992.8 2069.47 2987.2 2067.47 2976 2065.6C2964.8 2063.73 2950.13 2062.8 2932 2062.8H2905.6V2038H2865.6V2062.8H2843.2C2824.53 2062.8 2809.87 2065.87 2799.2 2072C2788.53 2077.87 2780.93 2085.73 2776.4 2095.6C2772.13 2105.47 2770 2116.27 2770 2128V2134.4C2770 2156.8 2776.13 2173.07 2788.4 2183.2Z" fill="white"/>
</svg>
